<svg xmlns="http://www.w3.org/2000/svg" width="256" height="256" fill="none" viewBox="0 0 256 256">
<!-- SVG created with Arrow, by QuiverAI (https://quiver.ai) -->
  <path d="m127.2 8.5c-36.53 0-56.26 26.47-61.54 49.77-32.69 8.44-57.35 38.59-57.35 75.1 0 52.7 47.73 114.1 118.7 114.1 62.88 0 120.8-53.02 120.8-120.1 0-57.22-47.67-118.9-120.6-118.9zm-105 124.9c0-34.71 28.09-62.98 63.25-62.98 24.38 0 44.44 15.41 53.08 39.8 5.62 15.88 16.53 24.57 31.07 24.57 18.64 0 31.87-17.17 31.87-35.05 0-21.65-4.95-39.68-19.85-61.72 28.2 18.07 51.67 50.99 51.67 84.77 0 34.02-28.71 62.92-63.69 62.92-24.38 0-44.44-15.42-53.09-39.8-4.81-14.79-16.01-25.01-30.04-25.01-18.9 0-32.93 16.22-32.93 34.64 0 21.65 6.19 40.37 22.02 62.74-29.27-15.12-53.36-48.04-53.36-84.88zm111.5 99.3c-37.29 0-66.09-35.66-66.09-77.16 0-12.02 8.5-19.91 17.97-19.91 7.7 0 14.41 5.67 17.85 17.24 9.67 28.41 34.75 47.07 65.22 47.07 18.82 0 34.32-6.67 45.89-15.62-19.9 28.87-49.74 47.67-80.84 48.38zm36.11-112.6c-9.1 0-13.94-5.2-17.69-16.44-10.63-28.41-34.77-48.25-64.64-48.25h-4.59c4.93-19.17 20.18-33.15 41.3-33.15 30.77 0 63.33 33.74 63.33 76.5 0 12.01-6.41 21.34-17.71 21.34z" fill="url(#paint0_linear_145_3495)"/>
  <defs>
    <linearGradient id="paint0_linear_145_3495" x1="100.9" x2="146.1" y1="-2.311" y2="258" gradientUnits="userSpaceOnUse">
      <stop stop-color="#95E6FA" offset="0"/>
      <stop stop-color="#95CAF9" offset=".4896"/>
      <stop stop-color="#9EA4F2" offset="1"/>
    </linearGradient>
  </defs>
</svg>